<svg width="200" height="200" viewBox="0 0 200 200" fill="none" xmlns="http://www.w3.org/2000/svg">
<path d="M140 40C128.954 40 120 48.9543 120 59.9999C120 71.0456 128.954 79.9999 140 79.9999C151.046 79.9999 160 71.0456 160 59.9999C160 48.9543 151.046 40 140 40Z" fill="#F2F2F2"/>
<path fill-rule="evenodd" clip-rule="evenodd" d="M20 0C8.9543 0 0 8.9543 0 20V180C0 191.046 8.95431 200 20 200H180C187.621 200 194.247 195.737 197.623 189.465C198.528 187.784 199.199 185.958 199.594 184.031C199.86 182.729 200 181.38 200 180V20C200 8.9543 191.046 0 180 0H20ZM60 37.2387L64.6564 41.8952C64.6759 41.9142 64.6953 41.9333 64.7145 41.9526L156.095 133.333H186.667V20C186.667 16.3181 183.682 13.3333 180 13.3333H20C16.3181 13.3333 13.3333 16.3181 13.3333 20V83.9054L60 37.2387Z" fill="#F2F2F2"/>
</svg>
